<?xml version="1.0" encoding="UTF-8"?>
<svg version="1.1" xmlns="http://www.w3.org/2000/svg" width="545" height="545">
<path d="M0 0 C1.03291168 0.00087616 2.06582336 0.00175232 3.1300354 0.00265503 C70.11005427 0.18946657 136.59398177 25.21306533 185.3828125 71.66015625 C187.91088228 74.0539008 190.49074008 76.34995734 193.125 78.625 C196.5315869 81.63518406 199.53730112 84.81078333 202.46484375 88.28515625 C203.67215083 89.6985245 204.91607871 91.08128467 206.19140625 92.43359375 C219.38252796 106.45067888 229.81672692 122.67177336 239.25 139.375 C239.68795898 140.14247559 240.12591797 140.90995117 240.57714844 141.70068359 C263.08796894 181.48229635 273.71958176 226.63208807 273.625 272.125 C273.62368576 273.67436752 273.62368576 273.67436752 273.62234497 275.2550354 C273.43553343 342.23505427 248.41193467 408.71898177 201.96484375 457.5078125 C199.5710992 460.03588228 197.27504266 462.61574008 195 465.25 C191.98981594 468.6565869 188.81421667 471.66230112 185.33984375 474.58984375 C183.9264755 475.79715083 182.54371533 477.04107871 181.19140625 478.31640625 C167.17432112 491.50752796 150.95322664 501.94172692 134.25 511.375 C133.48252441 511.81295898 132.71504883 512.25091797 131.92431641 512.70214844 C92.14270365 535.21296894 46.99291193 545.84458176 1.5 545.75 C0.46708832 545.74912384 -0.56582336 545.74824768 -1.6300354 545.74734497 C-68.61005427 545.56053343 -135.09398177 520.53693467 -183.8828125 474.08984375 C-186.41088228 471.6960992 -188.99074008 469.40004266 -191.625 467.125 C-195.0315869 464.11481594 -198.03730112 460.93921667 -200.96484375 457.46484375 C-202.17215083 456.0514755 -203.41607871 454.66871533 -204.69140625 453.31640625 C-217.88252796 439.29932112 -228.31672692 423.07822664 -237.75 406.375 C-238.18795898 405.60752441 -238.62591797 404.84004883 -239.07714844 404.04931641 C-261.58796894 364.26770365 -272.21958176 319.11791193 -272.125 273.625 C-272.12412384 272.59208832 -272.12324768 271.55917664 -272.12234497 270.4949646 C-271.93553343 203.51494573 -246.91193467 137.03101823 -200.46484375 88.2421875 C-198.0710992 85.71411772 -195.77504266 83.13425992 -193.5 80.5 C-190.48981594 77.0934131 -187.31421667 74.08769888 -183.83984375 71.16015625 C-182.4264755 69.95284917 -181.04371533 68.70892129 -179.69140625 67.43359375 C-165.67432112 54.24247204 -149.45322664 43.80827308 -132.75 34.375 C-131.98252441 33.93704102 -131.21504883 33.49908203 -130.42431641 33.04785156 C-90.64270365 10.53703106 -45.49291193 -0.09458176 0 0 Z " fill="#FEFEFE" transform="translate(271.75,-0.375)"/>
<path d="M0 0 C1.35738281 0.41572266 1.35738281 0.41572266 2.7421875 0.83984375 C14.36607839 4.86921168 24.2707401 12.7736444 31 23 C31.31582031 23.73605469 31.63164062 24.47210938 31.95703125 25.23046875 C32.84396707 27.15692391 32.84396707 27.15692391 34.8125 27.6875 C35.534375 27.790625 36.25625 27.89375 37 28 C48.41264408 30.17296743 56.81617021 35.03729809 63.85546875 44.4921875 C75.41239121 62.81204977 72.55057603 82.86910036 68 103 C67.06994515 106.31099525 65.93874506 109.51043029 64.63671875 112.6953125 C63.85499811 115.52485345 64.11316106 117.21876165 65 120 C66.6436814 121.68933922 68.3142876 123.35259924 70 125 C75.42834651 132.67507882 76.73722853 138.58949463 76 148 C74.31263333 157.71375947 70.51829073 164.58406162 63 171 C59.49611673 173.27657025 55.82592055 174.69433612 51.91796875 176.140625 C48.10494964 178.57033999 47.50940834 181.13650384 46.5 185.3125 C46.09684564 186.75941275 45.68786241 188.20471248 45.2734375 189.6484375 C45.06686523 190.37643555 44.86029297 191.10443359 44.64746094 191.85449219 C41.54187144 202.14556326 36.98511728 212.45401983 28.23828125 219.09765625 C25.27880461 222.9351626 25.95630713 224.86561061 26.47998047 229.50024414 C26.9606953 234.61816196 26.9407835 239.18248285 25 244 C19.24241337 250.23360757 11.03945314 253.64529517 3.50048828 257.26220703 C0.04024053 258.98002287 -3.25381826 260.85389536 -6.56640625 262.83984375 C-7.59685059 263.45529053 -8.62729492 264.0707373 -9.68896484 264.70483398 C-11.64784845 265.87758038 -13.60527262 267.05276892 -15.56103516 268.23071289 C-22.03253994 271.94618269 -22.03253994 271.94618269 -26.01953125 272.16796875 C-30.54959491 270.39275376 -34.75412269 268.18140258 -39 265.8125 C-40.42650879 265.02576904 -40.42650879 265.02576904 -41.88183594 264.22314453 C-68.85685606 249.14314394 -68.85685606 249.14314394 -75 243 C-75.20776367 241.0480957 -75.20776367 241.0480957 -75.16796875 238.67578125 C-75.17505859 237.81146484 -75.18214844 236.94714844 -75.18945312 236.05664062 C-75.18816486 234.24662535 -75.16775039 232.43650902 -75.12695312 230.62695312 C-75.20512987 225.59758271 -75.63667003 222.78068375 -79.30859375 219.1875 C-80.5356887 218.12110534 -81.76586689 217.0582415 -83 216 C-87.85265221 210.01028722 -90.83495487 203.8093347 -93.15625 196.515625 C-93.52637207 195.35458252 -93.89649414 194.19354004 -94.27783203 192.99731445 C-94.99951377 190.6557832 -95.68401513 188.30241186 -96.32763672 185.93823242 C-98.04789783 179.7995689 -98.04789783 179.7995689 -102.3671875 175.42871094 C-104.97265853 174.35194128 -104.97265853 174.35194128 -107.56005859 173.6940918 C-114.93667357 171.5956611 -119.07176686 166.01917146 -122.7734375 159.66015625 C-126.71477299 151.112228 -127.75509807 141.16325138 -125.16015625 132.05078125 C-122.39566598 125.97262587 -118.29552715 121.96836029 -113 118 C-113.25523437 117.10474609 -113.25523437 117.10474609 -113.515625 116.19140625 C-114.04735464 114.28792729 -114.56213153 112.37968578 -115.06640625 110.46875 C-115.69765628 108.12335238 -116.37356585 105.78959307 -117.08984375 103.46875 C-119.78938289 94.18714832 -120.36804056 85.28153384 -120.375 75.625 C-120.37653076 74.44881104 -120.37806152 73.27262207 -120.37963867 72.06079102 C-120.25901024 62.51227581 -119.45249876 53.42171981 -115.5 44.625 C-115.0771875 43.66851562 -114.654375 42.71203125 -114.21875 41.7265625 C-113.8165625 40.82679687 -113.414375 39.92703125 -113 39 C-112.3254829 37.33649499 -111.65617811 35.6708239 -111 34 C-111.73605469 33.62488281 -112.47210938 33.24976563 -113.23046875 32.86328125 C-114.69419922 32.09564453 -114.69419922 32.09564453 -116.1875 31.3125 C-117.15042969 30.81363281 -118.11335937 30.31476562 -119.10546875 29.80078125 C-122.2152101 27.86611086 -124.51028152 25.67178199 -127 23 C-126.18660156 22.76925781 -125.37320313 22.53851563 -124.53515625 22.30078125 C-116.31393125 19.96110754 -108.10574603 17.580355 -99.91015625 15.15234375 C-97.65068592 14.48329038 -95.38989404 13.82864052 -93.12109375 13.19140625 C-88.82947311 11.97211756 -84.7837496 10.52197314 -80.6875 8.75 C-54.74086203 -2.29824584 -27.55148408 -9.17317393 0 0 Z " fill="#242022" transform="translate(295,26)"/>
<path d="M0 0 C-0.90408116 6.19771429 -1.87089968 12.37102832 -3.0234375 18.52734375 C-3.20422852 19.51017334 -3.38501953 20.49300293 -3.57128906 21.50561523 C-3.93100488 23.45090381 -4.29964798 25.39457036 -4.67871094 27.33618164 C-6.90254482 39.47583437 -6.17236846 50.34991107 -3.3125 62.3125 C-3.03849365 63.49602051 -2.7644873 64.67954102 -2.48217773 65.89892578 C-0.55807451 74.05194341 1.60552353 82.0460733 4.31835938 89.97558594 C5.08014078 92.23801124 5.79882114 94.5119976 6.515625 96.7890625 C13.02255729 117.22444161 21.59975762 136.74539725 31 156 C31.33 156 31.66 156 32 156 C32.67566272 151.68077779 33.35110736 147.36152154 34.02636719 143.04223633 C34.25515131 141.57901127 34.48399061 140.11579483 34.71289062 138.65258789 C35.84052252 131.44415153 36.96586628 124.23547129 38.0703125 117.0234375 C38.85079694 111.94792113 39.64279535 106.87565935 40.5 101.8125 C40.61730469 101.07708984 40.73460937 100.34167969 40.85546875 99.58398438 C41.7699076 94.2300924 41.7699076 94.2300924 44 92 C46.765625 91.74121094 46.765625 91.74121094 50.25 91.734375 C52.12171875 91.73050781 52.12171875 91.73050781 54.03125 91.7265625 C55.99578125 91.73816406 55.99578125 91.73816406 58 91.75 C59.3096875 91.74226563 60.619375 91.73453125 61.96875 91.7265625 C63.2165625 91.72914063 64.464375 91.73171875 65.75 91.734375 C66.89984375 91.73663086 68.0496875 91.73888672 69.234375 91.74121094 C72 92 72 92 74 94 C74.49902344 95.95068359 74.49902344 95.95068359 74.859375 98.3984375 C75.00270264 99.3361499 75.14603027 100.2738623 75.29370117 101.23999023 C75.51956909 102.79182007 75.51956909 102.79182007 75.75 104.375 C76.09368843 106.62390674 76.43883371 108.87259115 76.78515625 111.12109375 C76.97480957 112.3622998 77.16446289 113.60350586 77.35986328 114.88232422 C78.44697897 121.92677373 79.61475351 128.95828962 80.78210449 135.98980713 C81.18497126 138.42223203 81.58330188 140.85537236 81.98144531 143.28857422 C82.23086408 144.79528975 82.48052709 146.30196487 82.73046875 147.80859375 C82.90055702 148.85540062 82.90055702 148.85540062 83.07408142 149.9233551 C83.67086442 153.57245898 83.67086442 153.57245898 85 157 C91.99371545 142.19850962 98.16623191 127.19738064 103.9050293 111.86791992 C104.92927828 109.18523257 106.00885064 106.53263386 107.10546875 103.87890625 C109.10594498 98.90751423 110.57210637 93.86485356 111.9375 88.6875 C112.18983398 87.74471191 112.44216797 86.80192383 112.70214844 85.83056641 C118.72757994 63.10100579 123.82526049 43.68047014 119 20.3125 C118.56855418 18.20715055 118.13945497 16.10141536 117.71606445 13.99443054 C117.333091 12.09064067 116.9421608 10.18845649 116.55078125 8.28637695 C116.07299796 5.43556094 115.88552873 2.87915696 116 0 C135.44392152 5.25511393 152.03143752 22.08620017 162 39 C177.74116522 67.24109403 178.39020275 98.79836123 173 130 C172.69493867 131.86973071 172.39025682 133.73952337 172.0859375 135.609375 C169.95683528 148.3148474 166.7893172 160.38100986 162.828125 172.62109375 C160.84957448 178.82198579 159.44091295 184.49653397 159 191 C160.14275391 191.49306641 160.14275391 191.49306641 161.30859375 191.99609375 C172.87819658 197.32591078 180.19476669 204.11562832 185 216 C187.77866468 224.33599404 186.86999499 235.47188673 183.453125 243.47265625 C178.02204709 252.91864391 169.53771185 260.26848389 159.25 263.875 C148.46348127 266.64676797 138.63506922 265.65994503 129 260 C122.60110983 255.29913934 117.63334988 250.0698933 114 243 C113.649375 242.38769531 113.29875 241.77539062 112.9375 241.14453125 C109.33654325 232.90734267 109.83831796 222.06633533 112.9375 213.8125 C117.61417407 203.86799925 125.06744507 196.64891604 135 192 C135.66684814 191.90227295 136.33369629 191.8045459 137.02075195 191.70385742 C139.16135936 191.18135255 139.16135936 191.18135255 140.09326172 189.14013672 C140.36928223 188.32818848 140.64530273 187.51624023 140.9296875 186.6796875 C141.24711914 185.76388916 141.56455078 184.84809082 141.89160156 183.90454102 C142.21612305 182.90479248 142.54064453 181.90504395 142.875 180.875 C143.22014648 179.84109131 143.56529297 178.80718262 143.92089844 177.74194336 C156.64476856 138.90235925 168.16725351 89.22102878 148.81835938 50.90771484 C147.06729576 47.33381348 147.06729576 47.33381348 144 45 C143.94501343 45.94528564 143.94501343 45.94528564 143.88891602 46.90966797 C143.31000878 54.84549149 141.77251087 62.39224211 139.9375 70.125 C139.78549133 70.77152527 139.63348267 71.41805054 139.47686768 72.08416748 C131.49031384 105.88793776 117.98744285 138.25481501 101.27441406 168.67041016 C99.91233158 171.16025518 98.57605855 173.66290515 97.2421875 176.16796875 C85.6457639 197.84202697 72.87529551 218.71275865 59 239 C55.12236824 237.70745608 53.99379907 235.4749105 51.875 232.1875 C51.45541016 231.54659424 51.03582031 230.90568848 50.60351562 230.24536133 C39.40205995 212.9384839 28.67268245 195.20593147 19 177 C18.21012695 175.51862549 18.21012695 175.51862549 17.40429688 174.00732422 C4.96045354 150.58217495 -6.0983734 126.99758859 -15 102 C-15.25475098 101.30148926 -15.50950195 100.60297852 -15.77197266 99.88330078 C-21.93785516 82.96777564 -29 62.15220904 -29 44 C-31.75443771 46.44384829 -33.26989666 49.04364358 -34.9375 52.3125 C-35.42089844 53.23675781 -35.90429688 54.16101563 -36.40234375 55.11328125 C-41.80084518 67.48266317 -42.53132512 78.62352537 -42.25 91.875 C-42.22987679 93.54555118 -42.21163645 95.21612613 -42.1953125 96.88671875 C-42.1518403 100.92508144 -42.08314672 104.96226741 -42 109 C-40.74445313 109.30470215 -39.48890625 109.6094043 -38.1953125 109.92333984 C-27.49643453 112.51979496 -18.74681926 118.09101699 -12.5078125 127.171875 C-8.31531193 134.56456832 -7.2816744 142.72107616 -6 151 C-5.814375 151.97066406 -5.62875 152.94132813 -5.4375 153.94140625 C-4.87545433 157.87070766 -4.77736533 161.72294822 -4.75 165.6875 C-4.729375 166.44611328 -4.70875 167.20472656 -4.6875 167.98632812 C-4.64880871 173.46598265 -4.64880871 173.46598265 -6.328125 176.01953125 C-8 177 -8 177 -11 177 C-10.94199219 177.76957031 -10.88398438 178.53914062 -10.82421875 179.33203125 C-10.47052161 188.3361499 -11.61007819 196.76844718 -13.25 205.625 C-13.45455811 206.74366455 -13.65911621 207.8623291 -13.86987305 209.01489258 C-15.93077753 219.6638081 -19.04218799 229.90757938 -23 240 C-22.01 239.67 -21.02 239.34 -20 239 C-19.60554688 238.16726563 -19.21109375 237.33453125 -18.8046875 236.4765625 C-17 234 -17 234 -13.3828125 233.3359375 C-11.96354392 233.32267331 -10.54381246 233.33665372 -9.125 233.375 C-8.41730469 233.35566406 -7.70960938 233.33632813 -6.98046875 233.31640625 C-3.0719399 233.35279851 -1.16064574 233.87782469 1.96875 236.2578125 C4.57780146 239.78003198 4.72278211 241.60744312 4.50390625 245.84375 C3.70500939 249.2622854 1.69395048 250.89740451 -1 253 C-1.33 253.33 -1.66 253.66 -2 254 C-4.10029986 254.152323 -6.20687139 254.22189372 -8.3125 254.25 C-10.03919922 254.28867187 -10.03919922 254.28867187 -11.80078125 254.328125 C-15.22549762 253.97687204 -16.60916244 253.43216067 -19 251 C-19 250.34 -19 249.68 -19 249 C-25.19076758 248.89402805 -25.19076758 248.89402805 -30.35546875 251.96484375 C-31.8726112 253.57599159 -33.37912822 255.19720924 -34.875 256.828125 C-37.84347452 259.86208058 -39.89496018 260.93573042 -44 262 C-49.89967037 261.61444818 -54.45721435 259.7314303 -59.6875 257.1875 C-60.50186523 256.7965918 -61.31623047 256.40568359 -62.15527344 256.00292969 C-74.2747391 250.05186051 -86.20799049 243.13729059 -97 235 C-97 234.67 -97 234.34 -97 234 C-94.89758397 233.86503749 -92.7927039 233.76802693 -90.6875 233.6875 C-88.92986328 233.60048828 -88.92986328 233.60048828 -87.13671875 233.51171875 C-86.10160156 233.67285156 -85.06648438 233.83398438 -84 234 C-82.20703125 236.45703125 -82.20703125 236.45703125 -81 239 C-80.34 239.33 -79.68 239.66 -79 240 C-79.22139648 239.30777344 -79.44279297 238.61554688 -79.67089844 237.90234375 C-83.62268035 225.41783813 -87.34427809 212.99683148 -89.5 200.0625 C-89.65952148 199.12470703 -89.81904297 198.18691406 -89.98339844 197.22070312 C-91.02425127 190.4563616 -91.16120747 183.8356445 -91 177 C-91.639375 176.855625 -92.27875 176.71125 -92.9375 176.5625 C-95 176 -95 176 -96 175 C-97.07888232 156.40809762 -96.84080826 136.08801772 -84.33203125 121.328125 C-78.22457464 115.23089863 -71.22407387 111.58265563 -62.8984375 109.5078125 C-61.00390183 109.17069225 -61.00390183 109.17069225 -60 108 C-59.90130717 105.63022437 -59.86205154 103.28450094 -59.859375 100.9140625 C-59.84536106 99.4196609 -59.82958575 97.92527502 -59.81225586 96.4309082 C-59.7987056 95.25294174 -59.7987056 95.25294174 -59.78488159 94.05117798 C-59.344223 63.40131059 -51.2047987 39.28951483 -29.13671875 17.12890625 C-25.06018033 13.34916078 -20.58411589 10.27534767 -15.9375 7.25 C-15.3597583 6.87286865 -14.7820166 6.4957373 -14.18676758 6.10717773 C-4.55269812 0 -4.55269812 0 0 0 Z " fill="#252223" transform="translate(212,261)"/>
<path d="M0 0 C0.66 0 1.32 0 2 0 C2.15855469 0.76699219 2.31710938 1.53398437 2.48046875 2.32421875 C16.86122374 70.73211958 46.3888875 133.4596471 86 191 C86.66 191.99 87.32 192.98 88 194 C88.66 194 89.32 194 90 194 C91.66374021 191.72214852 93.18647759 189.44608168 94.6875 187.0625 C95.40619263 185.93424805 95.40619263 185.93424805 96.1394043 184.78320312 C110.87692847 161.47974123 125.08876729 137.65389943 137.10546875 112.81982422 C138.01403919 110.97143882 138.95467444 109.14298828 139.90625 107.31640625 C147.38755976 92.87565188 153.63000132 77.79912627 159.10644531 62.4909668 C159.85572803 60.40218769 160.63199112 58.3274939 161.421875 56.25390625 C167.82932073 38.44497621 171.34405743 19.54005006 175 1 C178.6288549 2.2096183 179.18142802 3.63004973 180.90625 6.90771484 C194.4419528 34.3700664 191.89347151 65.66535617 186 95 C185.82871582 95.91007812 185.65743164 96.82015625 185.48095703 97.7578125 C184.24976071 104.24849971 182.72334994 110.62310857 181 117 C180.66758301 118.24587891 180.33516602 119.49175781 179.99267578 120.77539062 C179.06588685 124.19278185 178.07408012 127.58670572 177.04376221 130.97424316 C176.64493907 132.30686571 176.26112502 133.6440884 175.89373779 134.98571777 C172.96479615 145.56587424 172.96479615 145.56587424 168.15625 149.07568359 C164.96484375 150.6484375 164.96484375 150.6484375 161.90991211 151.82568359 C153.24484901 155.32253346 148.86890524 162.17329169 145.09375 170.36328125 C141.77158743 178.37206601 141.79669583 187.91547044 145 196 C150.12579897 208.27388582 156.87819053 213.71886079 169 219 C178.11909149 222.03969716 188.07720197 219.70095508 197 217 C196 220 196 220 192.84375 221.578125 C191.4020893 222.15140598 189.95345096 222.7073058 188.5 223.25 C187.70827393 223.55010986 186.91654785 223.85021973 186.10083008 224.15942383 C168.64299634 230.58263638 150.40369109 235.27907449 132 238 C130.21480957 238.26490234 130.21480957 238.26490234 128.39355469 238.53515625 C116.35906007 240.19510241 104.38429389 240.40022773 92.25 240.375 C91.21708832 240.37412384 90.18417664 240.37324768 89.1199646 240.37234497 C52.31389692 240.2696905 18.10434148 232.79580138 -16 219 C-13.6864371 217.45762473 -11.81092855 216.45951057 -9.3125 215.375 C-5.77208963 213.68232205 -3.65214319 211.68147609 -1.0625 208.75 C1.80482256 205.71866885 3.52866188 204.41581361 7.75 204.25 C9.921875 204.328125 9.921875 204.328125 12 205 C12.61488281 205.66386719 13.22976562 206.32773437 13.86328125 207.01171875 C17.44649167 210.34600413 21.23955735 209.6055721 25.9140625 209.4375 C29.1848578 209.17249187 29.1848578 209.17249187 32.3125 207.0625 C34.51071764 203.07314206 35.156789 199.45962102 34 195 C32.55252222 192.60317268 32.55252222 192.60317268 30 191 C27.14493806 190.57277195 24.78063915 190.39399562 21.9375 190.4375 C21.21755859 190.41365234 20.49761719 190.38980469 19.75585938 190.36523438 C17.38016629 190.31332135 17.38016629 190.31332135 14 191 C12.15228985 193.43930032 12.15228985 193.43930032 11 196 C10.01 196 9.02 196 8 196 C8.43572657 194.37452358 8.87370898 192.74965187 9.3125 191.125 C9.55613281 190.22007812 9.79976562 189.31515625 10.05078125 188.3828125 C10.57031486 186.53130589 11.10084858 184.68226927 11.68261719 182.84936523 C13.86518303 175.92315968 15.31788007 168.95138577 16.625 161.8125 C16.84736328 160.62591797 17.06972656 159.43933594 17.29882812 158.21679688 C18.67056403 150.63702357 19.54004547 143.32491048 19.46875 135.625 C19.6440625 134.75875 19.819375 133.8925 20 133 C20.825 132.5359375 21.65 132.071875 22.5 131.59375 C23.325 131.0678125 24.15 130.541875 25 130 C25.4858417 127.26394413 25.617301 125.22663085 25.5 122.5 C25.48227539 121.7567749 25.46455078 121.0135498 25.44628906 120.24780273 C24.85866932 104.39032268 23.09549319 88.24339929 11.765625 76.33203125 C4.86577566 70.51393795 -3.37373538 67.39981682 -12 65 C-13.55718543 15.88477449 -13.55718543 15.88477449 0 0 Z " fill="#FCFCFC" transform="translate(181,305)"/>
<path d="M0 0 C0.66 0 1.32 0 2 0 C2.13462646 0.5355249 2.26925293 1.0710498 2.40795898 1.62280273 C5.834969 15.08758055 10.01735561 28.10889042 14.8515625 41.1328125 C16.34953737 45.19669974 17.82432785 49.26677299 19.2421875 53.359375 C19.56815918 54.29491211 19.89413086 55.23044922 20.22998047 56.19433594 C23.09447388 66.63148187 20.16419733 77.08087028 17.65039062 87.28173828 C16.92746939 90.30313657 16.26540209 93.33448349 15.609375 96.37109375 C8.40179003 129.4365211 8.40179003 129.4365211 -2 142 C-2.66773438 142.82886719 -3.33546875 143.65773437 -4.0234375 144.51171875 C-14.19480426 156.50071243 -28.85226431 167.80856384 -44.86328125 169.37890625 C-60.67160739 170.233073 -72.23156529 164.34612876 -84 154 C-85.10021484 153.11248047 -85.10021484 153.11248047 -86.22265625 152.20703125 C-96.12808277 143.96666785 -102.80691851 134.13952058 -107 122 C-107.33386719 121.07574219 -107.66773438 120.15148437 -108.01171875 119.19921875 C-111.73585434 108.08569159 -113.75862878 96.48221355 -116 85 C-116.16951172 84.14100098 -116.33902344 83.28200195 -116.51367188 82.39697266 C-119.02820369 69.52956039 -120.04579652 60.61449129 -115.09375 48.234375 C-113.60890353 44.15698543 -113.60890353 44.15698543 -114 40 C-116.27677467 38.01748211 -118.36520705 36.43576139 -120.875 34.8125 C-127.93126888 30.06873112 -127.93126888 30.06873112 -130 28 C-130.1953125 25.6171875 -130.1953125 25.6171875 -130.125 22.875 C-130.10695312 21.96492188 -130.08890625 21.05484375 -130.0703125 20.1171875 C-130.04710937 19.41851562 -130.02390625 18.71984375 -130 18 C-125.53110927 19.52616834 -121.95185953 21.9964183 -118.125 24.6875 C-104.15917349 34.23614745 -89.80925297 40.60445242 -72.6875 40.4375 C-71.58027588 40.42847656 -70.47305176 40.41945312 -69.33227539 40.41015625 C-61.1564105 40.23682912 -54.50242311 39.4313408 -47 36 C-46.38930664 35.73155273 -45.77861328 35.46310547 -45.14941406 35.18652344 C-27.95428343 27.54894205 -10.59234917 15.88852375 0 0 Z " fill="#FDFDFD" transform="translate(319,94)"/>
<path d="M0 0 C6.31063567 3.6681324 10.75643803 8.19922863 13.04296875 15.1875 C13.43553364 19.88834033 13.34407865 24.48349424 13.04296875 29.1875 C12.05296875 29.5175 11.06296875 29.8475 10.04296875 30.1875 C10.53796875 38.6025 10.53796875 38.6025 11.04296875 47.1875 C12.36296875 47.8475 13.68296875 48.5075 15.04296875 49.1875 C15.31695324 56.93299816 14.51074301 64.29482033 13.29296875 71.9375 C13.1110498 73.08839111 12.92913086 74.23928223 12.74169922 75.42504883 C11.40487336 83.58383892 9.80677424 91.37758273 7.04296875 99.1875 C6.72223389 100.12408447 6.72223389 100.12408447 6.39501953 101.07958984 C3.42243324 109.64911348 0.23821032 118.3867383 -7.8671875 123.359375 C-12.33225997 125.12871213 -17.46580142 125.14791541 -21.953125 123.41796875 C-34.23693166 115.675614 -38.01009815 96.7798609 -41.04296875 83.6875 C-42.17669404 78.39196784 -42.96208742 73.04966473 -43.70703125 67.6875 C-43.83480957 66.76775391 -43.96258789 65.84800781 -44.09423828 64.90039062 C-44.77849232 59.61498532 -45.08153187 54.51612653 -44.95703125 49.1875 C-43.63703125 48.5275 -42.31703125 47.8675 -40.95703125 47.1875 C-40.90322547 44.39557795 -40.86345456 41.6046859 -40.83203125 38.8125 C-40.81527344 38.0184375 -40.79851562 37.224375 -40.78125 36.40625 C-40.76367652 34.33257985 -40.85367957 32.25866759 -40.95703125 30.1875 C-41.61703125 29.5275 -42.27703125 28.8675 -42.95703125 28.1875 C-44.26156352 20.27791485 -42.58680149 13.65634757 -37.95703125 7.1875 C-27.86103497 -3.71179435 -13.63907592 -6.57965471 0 0 Z " fill="#FDFDFD" transform="translate(175.95703125,388.8125)"/>
<path d="M0 0 C33.15423785 15.37049772 65.14978784 30.24345088 79.77836609 65.89707947 C82.80530825 74.47206805 82.60767757 83.3291142 82.71484375 92.30859375 C82.72707033 93.17933092 82.73929691 94.05006809 82.751894 94.94719124 C82.81411836 99.55046478 82.85718614 104.15347909 82.88549805 108.75708008 C82.91875158 113.4837594 83.0220902 118.20622379 83.14101315 122.93141079 C83.21978655 126.59401281 83.24459448 130.25561862 83.25534248 133.918993 C83.26985561 135.66020482 83.30446028 137.40138054 83.36045647 139.14175224 C83.79095292 153.39935457 83.79095292 153.39935457 79.24197388 158.58743286 C76.38182074 161.39551205 73.30878789 163.7455924 70 166 C66.125 164.25 66.125 164.25 65 162 C64.89836339 159.37847239 64.85635106 156.7826066 64.8581543 154.16064453 C64.85467987 153.35057449 64.85120544 152.54050446 64.84762573 151.70588684 C64.8402617 149.94182144 64.83491978 148.17774672 64.83133507 146.41366959 C64.82416684 143.61252621 64.80849353 140.81155773 64.78999329 138.01046753 C64.73756965 130.0441135 64.6896379 122.07785058 64.67407227 114.11132812 C64.66392893 109.23939035 64.63443553 104.36788612 64.59275246 99.49612045 C64.5805177 97.64720837 64.5753073 95.7982348 64.57755089 93.9492836 C64.59364925 76.33702596 61.32343453 62.65879968 48.9375 49.375 C39.03081637 40.03063231 26.71463825 34.1045005 14.64404297 28.07299805 C13.20375732 27.34463745 13.20375732 27.34463745 11.734375 26.6015625 C10.43838379 25.95695068 10.43838379 25.95695068 9.11621094 25.29931641 C6.09281877 23.44300663 5.14200508 21.51902858 4.21875 18.14453125 C3.9815625 17.04496094 3.744375 15.94539063 3.5 14.8125 C2.41670601 9.84936502 1.24841002 4.92368609 0 0 Z " fill="#242122" transform="translate(387,308)"/>
<path d="M0 0 C1.12706462 3.38119385 0.9031254 3.88804695 -0.3125 7.0625 C-1.24953231 9.51706756 -1.97280554 11.73782582 -2.24462891 14.35839844 C-3.05009799 21.10529811 -3.05009799 21.10529811 -5.71411133 23.61450195 C-8.0060022 24.9695006 -10.30755683 26.06553899 -12.75 27.125 C-14.48271559 27.955062 -16.21448018 28.78711192 -17.9453125 29.62109375 C-18.80286133 30.02054199 -19.66041016 30.41999023 -20.54394531 30.83154297 C-29.7221601 35.1980376 -38.17205403 40.51879742 -46 47 C-46.86625 47.598125 -47.7325 48.19625 -48.625 48.8125 C-56.65272891 56.20646084 -63.67687521 68.59542818 -64.15821838 79.62565613 C-64.17888478 81.16208113 -64.19417574 82.69858386 -64.20532227 84.23510742 C-64.22017166 85.49397514 -64.22017166 85.49397514 -64.23532104 86.77827454 C-64.26692396 89.55397718 -64.29168874 92.32969695 -64.31640625 95.10546875 C-64.33697682 97.02932685 -64.35797332 98.95318043 -64.37937927 100.87702942 C-64.43458932 105.94209136 -64.48400334 111.00719402 -64.53222656 116.07232666 C-64.58244935 121.24031195 -64.63813136 126.40823808 -64.69335938 131.57617188 C-64.80092791 141.71739738 -64.90237582 151.85867424 -65 162 C-71.84613255 159.36844268 -76.9287226 156.02308352 -80.85430908 149.74755859 C-85.2012282 139.32291893 -83.32687241 125.51657951 -82.99884033 114.41577148 C-82.91724166 111.20216403 -82.89139766 107.98923108 -82.86814022 104.77474976 C-82.83795457 100.89115199 -82.77864686 97.00817086 -82.71484375 93.125 C-82.70465651 92.40423279 -82.69446926 91.68346558 -82.68397331 90.94085693 C-82.28623646 67.60461973 -74.9516548 50.53754883 -58.46313477 34.09179688 C-42.15422674 18.44402372 -20.17717176 9.53623526 0 0 Z " fill="#252223" transform="translate(151,308)"/>
<path d="M0 0 C5.77864605 0.80956877 9.07379048 6.03641839 12.640625 10.25390625 C13.80468619 11.61410029 15.00451182 12.94471054 16.2421875 14.23828125 C17.07556641 15.12386719 17.07556641 15.12386719 17.92578125 16.02734375 C18.43109375 16.54683594 18.93640625 17.06632812 19.45703125 17.6015625 C20.42578125 19.33984375 20.42578125 19.33984375 20.30078125 21.65625 C19.23138084 24.93606287 17.7022014 27.6339971 15.92578125 30.58984375 C15.29671875 31.646875 14.66765625 32.70390625 14.01953125 33.79296875 C12.42578125 36.33984375 12.42578125 36.33984375 11.42578125 37.33984375 C-11.56976588 40.52139524 -11.56976588 40.52139524 -18.79541016 35.92773438 C-22.46341163 32.00178474 -24.32543214 27.51103057 -25.57421875 22.33984375 C-25.14397108 18.93637346 -23.86014084 17.22306086 -21.51953125 14.7734375 C-20.59720703 13.79793945 -20.59720703 13.79793945 -19.65625 12.80273438 C-19.01042969 12.13435547 -18.36460937 11.46597656 -17.69921875 10.77734375 C-16.74208984 9.76897461 -16.74208984 9.76897461 -15.765625 8.74023438 C-14.04430181 6.93086855 -12.31603878 5.12947534 -10.57421875 3.33984375 C-10.05827148 2.78296875 -9.54232422 2.22609375 -9.01074219 1.65234375 C-6.41085491 -0.72308011 -3.34727037 -0.1211024 0 0 Z " fill="#252123" transform="translate(272.57421875,307.66015625)"/>
<path d="M0 0 C7.15961285 0.94789241 10.91618102 3.43529972 15.4375 9 C18.39935005 14.85959079 17.96634149 22.22522855 16.375 28.44140625 C14.07793029 33.84567293 10.1946951 36.51465306 5 39 C-0.60347703 40.86782568 -6.15487096 40.58429086 -11.75 38.8125 C-16.96806251 35.90242668 -21.40664289 32.98875035 -23.5234375 27.1484375 C-24.94522018 20.73876147 -25.23334875 14.27335673 -21.8125 8.5 C-19.56989381 5.45917805 -17.24360392 2.99606395 -14 1 C-12.68 1 -11.36 1 -10 1 C-9.87882812 2.25296875 -9.75765625 3.5059375 -9.6328125 4.796875 C-9.46395167 6.44795865 -9.29465817 8.09899809 -9.125 9.75 C-9.04636719 10.575 -8.96773438 11.4 -8.88671875 12.25 C-8.80292969 13.04921875 -8.71914063 13.8484375 -8.6328125 14.671875 C-8.55949707 15.4050293 -8.48618164 16.13818359 -8.41064453 16.89355469 C-7.96110247 19.19952905 -7.1362627 20.95391841 -6 23 C-4.33388095 23.042721 -2.66617115 23.04063832 -1 23 C0.23921211 21.98363023 0.23921211 21.98363023 0.11352539 19.86694336 C0.10567017 18.49227905 0.10567017 18.49227905 0.09765625 17.08984375 C0.09282227 15.60581055 0.09282227 15.60581055 0.08789062 14.09179688 C0.07951172 13.05087891 0.07113281 12.00996094 0.0625 10.9375 C0.05798828 9.89271484 0.05347656 8.84792969 0.04882812 7.77148438 C0.03699913 5.1809334 0.02051689 2.59049441 0 0 Z " fill="#FAFAFA" transform="translate(364,469)"/>
<path d="M0 0 C0.99 0 1.98 0 3 0 C3.70023615 4.41474569 4.38298353 8.83202162 5.0625 13.25 C5.26166016 14.50425781 5.46082031 15.75851563 5.66601562 17.05078125 C5.84970703 18.25605469 6.03339844 19.46132812 6.22265625 20.703125 C6.39547119 21.81333008 6.56828613 22.92353516 6.74633789 24.06738281 C6.9782642 26.74870991 6.86020806 28.48101067 6 31 C0.90102671 27.1474424 -1.86413971 23.923881 -3.6875 17.625 C-4.58694226 10.069685 -4.2071104 6.3106656 0 0 Z " fill="#EEEEEE" transform="translate(184,157)"/>
<path d="M0 0 C3.84667969 0.79101562 3.84667969 0.79101562 5.2265625 2.671875 C7.27920476 8.85053554 7.06221782 16.61703057 4.375 22.5625 C2.23576642 26.20227512 -0.3291906 27.99774033 -4 30 C-3.34191805 19.90184594 -1.64330983 9.97354707 0 0 Z " fill="#EFEEEF" transform="translate(353,158)"/>
<path d="M0 0 C-0.8125 1.9375 -0.8125 1.9375 -2 4 C-2.99 4.33 -3.98 4.66 -5 5 C-5.28875 5.639375 -5.5775 6.27875 -5.875 6.9375 C-7.39098648 9.71680854 -9.05867273 10.07115981 -12 11 C-2.73033708 0 -2.73033708 0 0 0 Z " fill="#2B2929" transform="translate(186,277)"/>
<path d="M0 0 C0.68359375 1.796875 0.68359375 1.796875 1 4 C-0.21484375 5.703125 -0.21484375 5.703125 -1.9375 7.25 C-2.50339844 7.77078125 -3.06929688 8.2915625 -3.65234375 8.828125 C-4.09707031 9.21484375 -4.54179687 9.6015625 -5 10 C-5.99 9.67 -6.98 9.34 -8 9 C-6.8553125 8.1646875 -6.8553125 8.1646875 -5.6875 7.3125 C-3.03859112 5.03320631 -1.61711178 3.06400128 0 0 Z " fill="#2B2929" transform="translate(357,179)"/>
</svg>
